<?xml version="1.0" encoding="UTF-8"?>
<svg width="466px" height="322px" viewBox="0 0 466 322" version="1.1" xmlns="http://www.w3.org/2000/svg" xmlns:xlink="http://www.w3.org/1999/xlink">
    <!-- Generator: Sketch 59.1 (86144) - https://sketch.com -->
    <title>undraw_camera_mg5h</title>
    <desc>Created with Sketch.</desc>
    <g id="Page-1" stroke="none" stroke-width="1" fill="none" fill-rule="evenodd">
        <g id="Photos-Copy" transform="translate(-487.000000, -243.000000)">
            <g id="undraw_camera_mg5h" transform="translate(487.000000, 242.000000)">
                <polygon id="Path" fill="#F2F2F2" fill-rule="nonzero" points="355.659237 60 295 101 384 101"></polygon>
                <polygon id="Path" fill="#F2F2F2" fill-rule="nonzero" points="388.926765 106 290.121617 106 260 127 403 127"></polygon>
                <polygon id="Path" fill="#F2F2F2" fill-rule="nonzero" points="256.533081 131 161 196.356208 229.050179 296 427 160.577258 406.800868 131"></polygon>
                <ellipse id="Oval" fill="#F2F2F2" fill-rule="nonzero" cx="266.5" cy="313" rx="199.5" ry="10"></ellipse>
                <ellipse id="Oval" fill="#F2F2F2" fill-rule="nonzero" cx="57.5" cy="294.5" rx="57.5" ry="7.5"></ellipse>
                <ellipse id="Oval" fill="#3F3D56" fill-rule="nonzero" cx="158.5" cy="171" rx="6.5" ry="4"></ellipse>
                <polygon id="Path" fill="#3F3D56" fill-rule="nonzero" points="336 200 183 200 186.762344 186.500246 190.015836 174.821645 195.541145 155 323.817173 155 329.184546 174.821645 332.857557 188.39273"></polygon>
                <polygon id="Path" fill="#000000" fill-rule="nonzero" opacity="0.1" points="333 188 187 188 187 186.187153 190.251372 175 329.329383 175"></polygon>
                <rect id="Rectangle" fill="#6C63FF" fill-rule="nonzero" x="148" y="171" width="20" height="15"></rect>
                <rect id="Rectangle" fill="#3F3D56" fill-rule="nonzero" x="134" y="178" width="253" height="135"></rect>
                <rect id="Rectangle" fill="#6C63FF" fill-rule="nonzero" x="134" y="229" width="253" height="33"></rect>
                <circle id="Oval" fill="#2F2E41" fill-rule="nonzero" cx="260.5" cy="245.5" r="62.5"></circle>
                <ellipse id="Oval" fill="#3F3D56" fill-rule="nonzero" cx="261" cy="245.5" rx="58" ry="58.5"></ellipse>
                <circle id="Oval" fill="#2F2E41" fill-rule="nonzero" cx="260.5" cy="245.5" r="44.5"></circle>
                <circle id="Oval" fill="#6C63FF" fill-rule="nonzero" opacity="0.2" cx="348" cy="187" r="4"></circle>
                <circle id="Oval" fill="#6C63FF" fill-rule="nonzero" opacity="0.5" cx="361" cy="187" r="4"></circle>
                <circle id="Oval" fill="#6C63FF" fill-rule="nonzero" cx="374" cy="187" r="4"></circle>
                <rect id="Rectangle" fill="#2F2E41" fill-rule="nonzero" x="245" y="158" width="30" height="13"></rect>
                <path d="M26.2140404,118 L28.9230722,115.465373 C28.9230722,115.465373 35.8461597,104.200383 28.9230722,105.045254 C22,105.890125 22,111.522618 22,111.522618 L22,118 L26.2140404,118 Z" id="Path" fill="#9F616A" fill-rule="nonzero"></path>
                <path d="M130,146.368082 L132.720038,145.441697 C132.720038,145.441697 139.973446,134.325082 140.880111,139.265807 C141.786777,144.206532 137.253408,151 137.253408,151 L130,151 L130,146.368082 Z" id="Path" fill="#9F616A" fill-rule="nonzero"></path>
                <polygon id="Rectangle" fill="#3F3D56" fill-rule="nonzero" transform="translate(97.992057, 71.083936) rotate(14.076230) translate(-97.992057, -71.083936) " points="39.0531554 13.6088892 156.931671 13.6081581 156.930958 128.558984 39.0524424 128.559715"></polygon>
                <polygon id="Rectangle" fill="#6C63FF" fill-rule="nonzero" opacity="0.2" transform="translate(100.912931, 56.493066) rotate(14.076230) translate(-100.912931, -56.493066) " points="50.2955237 21.0237866 151.530779 21.0231587 151.530339 91.9623445 50.2950837 91.9629723"></polygon>
                <ellipse id="Oval" fill="#2F2E41" fill-rule="nonzero" cx="67.5" cy="106.5" rx="11.5" ry="9.5"></ellipse>
                <path d="M49.9327424,185.493248 C49.9327424,185.493248 45.6123874,197.494185 44.7483106,227.935592 C43.8842337,258.376999 43.0201666,277.402854 46.7644753,280.037225 C50.5087839,282.671595 55.9812316,282.086165 56.2692523,281.500754 C56.5572731,280.915343 57.9973963,242.863587 57.9973963,242.863587 L65.4860087,214.471125 L73.838693,233.789733 L73.838693,267.450902 C73.838693,267.450902 80.1752127,273.305014 82.7674286,267.743605 C85.3596445,262.182195 87.0877836,233.789733 87.0877836,233.789733 C87.0877836,233.789733 90.256041,185.493272 84.7835933,179.639155 C79.3111456,173.785038 49.9327424,185.493248 49.9327424,185.493248 Z" id="Path" fill="#2F2E41" fill-rule="nonzero"></path>
                <path d="M50.8357085,280.084651 C50.8357085,280.084651 47.552077,277.131688 44.8654639,280.970541 C42.1788508,284.809393 33.223489,293.077683 35.3130736,294.554165 C37.4026582,296.030646 48.1491005,296.621237 49.3431474,295.144756 C49.3431474,295.144756 58,291.305904 58,290.420019 C58,289.534134 56.8059531,279.789343 55.6119062,280.084651 C54.4178593,280.379959 51.1342429,282.742315 50.8357085,280.084651 Z" id="Path" fill="#2F2E41" fill-rule="nonzero"></path>
                <path d="M77.6249866,266 L83.2762101,266 C83.2762101,266 81.7073983,270.206863 83.1654032,270.206863 C84.6234081,270.206863 98.0370501,281.625497 92.7882315,282.827472 C87.539413,284.029446 72.667771,278.620609 72.0845651,276.817665 C71.5013592,275.014721 74.1257759,266.901487 74.1257759,266.901487 L77.6249916,268.704431 L77.6249866,266 Z" id="Path" fill="#2F2E41" fill-rule="nonzero"></path>
                <path d="M61.8968406,113.853239 C61.8968406,113.853239 61.3211972,123.979861 58.4430001,124.873383 C55.5648029,125.766904 67.6532301,135 67.6532301,135 L76,123.682018 C76,123.682018 72.833986,118.023026 73.9852629,113.853239 C75.1365399,109.683451 61.8968406,113.853239 61.8968406,113.853239 Z" id="Path" fill="#9F616A" fill-rule="nonzero"></path>
                <path d="M61.8968406,113.853239 C61.8968406,113.853239 61.3211972,123.979861 58.4430001,124.873383 C55.5648029,125.766904 67.6532301,135 67.6532301,135 L76,123.682018 C76,123.682018 72.833986,118.023026 73.9852629,113.853239 C75.1365399,109.683451 61.8968406,113.853239 61.8968406,113.853239 Z" id="Path" fill="#000000" fill-rule="nonzero" opacity="0.1"></path>
                <path d="M66.281715,125.131515 C66.281715,125.131515 56.025185,121.345801 54.5599713,122.219428 C53.0947577,123.093055 39.3216992,129.208443 39.0286535,130.373266 C38.7356078,131.538089 40.7869177,148.4282 40.7869177,148.4282 C40.7869177,148.4282 44.3034463,149.884243 44.5964821,155.999621 C44.8895179,162.114999 52.8017071,171.724904 50.1643156,178.131474 C47.5269242,184.538043 44.8895228,186.867742 49.8712699,187.741359 C54.853017,188.614976 77.4173771,187.158938 78.58955,185.120479 C79.7617229,183.082019 86.5017293,180.169933 88.5530343,180.752349 C90.6043393,181.334765 87.3808614,150.466659 87.3808614,150.466659 L89.1391257,146.09853 L95,130.08206 C95,130.08206 86.2086787,120.180964 77.7104228,121.054591 C77.7104179,121.054596 68.33302,122.219428 66.281715,125.131515 Z" id="Path" fill="#555AA8" fill-rule="nonzero"></path>
                <path d="M43.833826,132.344293 L39.4606478,131.482789 C39.4606478,131.482789 35.0874696,134.354464 33.6297435,134.354464 C32.1720174,134.354464 32.1720174,135.503131 32.1720174,135.503131 C32.1720174,135.503131 26.6326603,127.175278 27.7988441,117.698756 C27.7988441,117.698756 21.0933032,114.539912 20.8017511,116.837253 C20.510199,119.134593 18.1778461,145.266822 23.1341138,146.989829 C28.0903814,148.712835 45,149 45,149 L43.833826,132.344293 Z" id="Path" fill="#555AA8" fill-rule="nonzero"></path>
                <path d="M91.1419047,131 L95.2456219,131 L106.091164,141.643569 C106.091164,141.643569 108.729268,141.068242 109.608642,142.794228 C110.488016,144.520214 116.350467,144.232548 116.350467,144.232548 L131.885972,145.670864 C131.885972,145.670864 133.93783,152.287138 132.472216,153.437792 C131.006602,154.588446 105.2118,154.876112 105.2118,154.876112 C105.2118,154.876112 102.866817,153.725458 101.401203,154.876112 C99.9355887,156.026767 89.3831709,148.83517 88.2106817,146.821523 C87.0381924,144.807875 91.1419047,131 91.1419047,131 Z" id="Path" fill="#555AA8" fill-rule="nonzero"></path>
                <circle id="Oval" fill="#9F616A" fill-rule="nonzero" cx="68" cy="108" r="11"></circle>
                <path d="M61.6310349,101.610913 C61.6310349,101.610913 59.7533114,96.7535654 62.476011,95.1656207 L63.2271014,97.3140516 C63.2271014,97.3140516 70.0808008,93.2040085 71.8646436,94.1381124 L70.1746914,96.3799527 C70.1746914,96.3799527 78.1550239,96.3799527 78.718343,99.4624825 L75.9017527,99.5558919 C75.9017527,99.5558919 78.9061143,101.517499 79,104.693433 L72.9912767,105.067071 L75.9017527,106.74845 C75.9017527,106.74845 65.0109442,108.24301 62.3821253,103.946153 L61.6310349,101.610913 Z" id="Path" fill="#2F2E41" fill-rule="nonzero"></path>
                <path d="M58,103.989109 C58,103.989109 61.13657,107.115063 65.1958677,105.572088 C69.2551654,104.029113 65.1958677,98.3715331 65.1958677,98.3715331 L62.4896676,97 L58,103.989109 Z" id="Path" fill="#2F2E41" fill-rule="nonzero"></path>
                <polygon id="Rectangle" stroke="#F2F2F2" stroke-width="2" transform="translate(110.459257, 70.901558) rotate(-27.671930) translate(-110.459257, -70.901558) " points="105.03489 65.4772729 115.883506 65.4773902 115.883623 76.3258438 105.035008 76.3257265"></polygon>
                <polygon id="Rectangle" fill="#6C63FF" fill-rule="nonzero" transform="translate(81.365077, 62.025585) rotate(30.000000) translate(-81.365077, -62.025585) " points="75.940836 56.6014154 86.7894419 56.6012919 86.7893184 67.4497553 75.9407125 67.4498788"></polygon>
                <circle id="Oval" stroke="#3F3D56" stroke-width="2" cx="274.5" cy="142.5" r="5.5"></circle>
                <circle id="Oval" stroke="#3F3D56" stroke-width="2" cx="258.5" cy="121.5" r="5.5"></circle>
                <circle id="Oval" stroke="#3F3D56" stroke-width="2" cx="285.5" cy="105.5" r="5.5"></circle>
                <circle id="Oval" stroke="#F2F2F2" stroke-width="2" cx="102.5" cy="46.5" r="5.5"></circle>
            </g>
        </g>
    </g>
</svg>